<?xml version="1.0" encoding="UTF-8" standalone="no"?>
<svg width="20px" height="20px" viewBox="0 0 20 20" version="1.1" xmlns="http://www.w3.org/2000/svg" xmlns:xlink="http://www.w3.org/1999/xlink">
    <defs></defs>
    <g id="Page-1" stroke="none" stroke-width="1" fill="none" fill-rule="evenodd">
        <g id="twitter" fill="#FFFFFF">
            <path d="M20,4.01233484 C19.2641748,4.35373211 18.4733495,4.58449514 17.6433495,4.68812272 C18.4903883,4.15698695 19.1411165,3.31598392 19.4474272,2.31377679 C18.6545631,2.80561429 17.7764563,3.16275118 16.8417961,3.35518063 C16.0933495,2.52108272 15.0269417,2 13.8467476,2 C11.1982039,2 9.25121359,4.58515519 9.84980583,7.26957148 C6.43961165,7.09064762 3.4161165,5.38198576 1.39237864,2.78560975 C0.317524272,4.71411846 0.834854369,7.23793993 2.66218447,8.51533642 C1.98966019,8.49309787 1.35679612,8.30000836 0.80368932,7.97846331 C0.759174757,9.96683332 2.12145631,11.8260877 4.09470874,12.2408011 C3.51723301,12.4051532 2.88470874,12.4427759 2.24179612,12.3142696 C2.76383495,14.019225 4.27927184,15.2600142 6.07480583,15.2945906 C4.34970874,16.7085663 2.17699029,17.3401309 0,17.0717959 C1.81582524,18.2894327 3.9726699,19 6.28985437,19 C13.9079126,19 18.2119417,12.2699956 17.9525243,6.23390498 C18.7543204,5.62884381 19.4499029,4.872987 20,4.01233484 L20,4.01233484 Z" id="twitter-icon"></path>
        </g>
    </g>
</svg>